HIERARCHY
ROOT Hips
{
  OFFSET 0 0.240689 0
  CHANNELS 6 Xposition Yposition Zposition Zrotation Xrotation Yrotation
  JOINT Bip01_Spine0
  {
    OFFSET 0 -24.7459 49.7988
    CHANNELS 6 Xposition Yposition Zposition Zrotation Xrotation Yrotation
    JOINT Bip01_Pelvis
    {
      OFFSET 0 0 0
      CHANNELS 6 Xposition Yposition Zposition Zrotation Xrotation Yrotation
      JOINT Bip01_Spine0_Tail
      {
        OFFSET -6.47486 -3.86022 0
        CHANNELS 6 Xposition Yposition Zposition Zrotation Xrotation Yrotation
        JOINT Bip01_Spine0_Tail1
        {
          OFFSET 10.3837 -0.00825882 0
          CHANNELS 6 Xposition Yposition Zposition Zrotation Xrotation Yrotation
          JOINT Bip01_Spine0_Tail2
          {
            OFFSET 10.3837 -0.00826263 0
            CHANNELS 6 Xposition Yposition Zposition Zrotation Xrotation Yrotation
            JOINT Bip01_Spine0_Tail3
            {
              OFFSET 10.3837 -0.00825882 0
              CHANNELS 6 Xposition Yposition Zposition Zrotation Xrotation Yrotation
              JOINT Bip01_Spine0_Tail4
              {
                OFFSET 10.3837 -0.00826263 0
                CHANNELS 6 Xposition Yposition Zposition Zrotation Xrotation Yrotation
                End Site
                {
                  OFFSET 0 0 0
                }
              }
            }
          }
        }
      }
      JOINT Bip01_R_Thigh
      {
        OFFSET 0 -1.52588e-005 -8.75617
        CHANNELS 6 Xposition Yposition Zposition Zrotation Xrotation Yrotation
        JOINT Bip01_R_Calf
        {
          OFFSET 19.7638 0 0
          CHANNELS 6 Xposition Yposition Zposition Zrotation Xrotation Yrotation
          JOINT Bip01_R_Foot
          {
            OFFSET 18.6534 0 0
            CHANNELS 6 Xposition Yposition Zposition Zrotation Xrotation Yrotation
            JOINT Bip01_R_Toe0
            {
              OFFSET 5.09145 13.9567 0
              CHANNELS 6 Xposition Yposition Zposition Zrotation Xrotation Yrotation
              JOINT Bip01_R_Toe01
              {
                OFFSET 4.28803 0 0
                CHANNELS 6 Xposition Yposition Zposition Zrotation Xrotation Yrotation
                JOINT Bip01_R_Toe02
                {
                  OFFSET 3.85801 0 0
                  CHANNELS 6 Xposition Yposition Zposition Zrotation Xrotation Yrotation
                  End Site
                  {
                    OFFSET 0 0 0
                  }
                }
              }
            }
          }
        }
      }
      JOINT Bip01_L_Thigh
      {
        OFFSET 0 1.52588e-005 8.75617
        CHANNELS 6 Xposition Yposition Zposition Zrotation Xrotation Yrotation
        JOINT Bip01_L_Calf
        {
          OFFSET 19.7638 0 0
          CHANNELS 6 Xposition Yposition Zposition Zrotation Xrotation Yrotation
          JOINT Bip01_L_Foot
          {
            OFFSET 18.6534 0 0
            CHANNELS 6 Xposition Yposition Zposition Zrotation Xrotation Yrotation
            JOINT Bip01_L_Toe0
            {
              OFFSET 5.09144 13.9567 0
              CHANNELS 6 Xposition Yposition Zposition Zrotation Xrotation Yrotation
              JOINT Bip01_L_Toe01
              {
                OFFSET 4.28802 0 0
                CHANNELS 6 Xposition Yposition Zposition Zrotation Xrotation Yrotation
                JOINT Bip01_L_Toe02
                {
                  OFFSET 3.85801 0 0
                  CHANNELS 6 Xposition Yposition Zposition Zrotation Xrotation Yrotation
                  End Site
                  {
                    OFFSET 0 0 0
                  }
                }
              }
            }
          }
        }
      }
      JOINT Bip01_Spine
      {
        OFFSET 9.14835 -0.00640869 -1.1e-005
        CHANNELS 6 Xposition Yposition Zposition Zrotation Xrotation Yrotation
        JOINT Bip01_Spine1
        {
          OFFSET 8.04366 -0.00638199 0
          CHANNELS 6 Xposition Yposition Zposition Zrotation Xrotation Yrotation
          JOINT Bip01_Spine2
          {
            OFFSET 8.04367 -0.00639343 0
            CHANNELS 6 Xposition Yposition Zposition Zrotation Xrotation Yrotation
            JOINT Bip01_Spine3
            {
              OFFSET 8.04304 -0.00831222 0
              CHANNELS 6 Xposition Yposition Zposition Zrotation Xrotation Yrotation
              JOINT Bip01_Neck
              {
                OFFSET 10.6685 1.06813 0
                CHANNELS 6 Xposition Yposition Zposition Zrotation Xrotation Yrotation
                JOINT Bip01_R_Clavicle
                {
                  OFFSET -3.21661 -4.89635 -9.04802
                  CHANNELS 6 Xposition Yposition Zposition Zrotation Xrotation Yrotation
                  JOINT Bip01_R_UpperArm
                  {
                    OFFSET 19.0492 0 0
                    CHANNELS 6 Xposition Yposition Zposition Zrotation Xrotation Yrotation
                    JOINT Bip01_R_Forearm
                    {
                      OFFSET 10.3706 0 0
                      CHANNELS 6 Xposition Yposition Zposition Zrotation Xrotation Yrotation
                      JOINT Bip01_R_Hand
                      {
                        OFFSET 22.8632 0 0
                        CHANNELS 6 Xposition Yposition Zposition Zrotation Xrotation Yrotation
                        JOINT Bip01_R_Finger0
                        {
                          OFFSET 6.48259 0.103651 0.504496
                          CHANNELS 6 Xposition Yposition Zposition Zrotation Xrotation Yrotation
                          JOINT Bip01_R_Finger01
                          {
                            OFFSET 3.66847 0 0
                            CHANNELS 6 Xposition Yposition Zposition Zrotation Xrotation Yrotation
                            End Site
                            {
                              OFFSET 0 0 0
                            }
                          }
                        }
                      }
                    }
                  }
                }
                JOINT Bip01_L_Clavicle
                {
                  OFFSET -3.21661 -4.89641 9.04797
                  CHANNELS 6 Xposition Yposition Zposition Zrotation Xrotation Yrotation
                  JOINT Bip01_L_UpperArm
                  {
                    OFFSET 19.0492 0 0
                    CHANNELS 6 Xposition Yposition Zposition Zrotation Xrotation Yrotation
                    JOINT Bip01_L_Forearm
                    {
                      OFFSET 10.3706 0 0
                      CHANNELS 6 Xposition Yposition Zposition Zrotation Xrotation Yrotation
                      JOINT Bip01_L_Hand
                      {
                        OFFSET 22.8631 0 0
                        CHANNELS 6 Xposition Yposition Zposition Zrotation Xrotation Yrotation
                        JOINT Bip01_L_Finger0
                        {
                          OFFSET 6.48257 0.103655 -0.504492
                          CHANNELS 6 Xposition Yposition Zposition Zrotation Xrotation Yrotation
                          JOINT Bip01_L_Finger01
                          {
                            OFFSET 3.66844 0 0
                            CHANNELS 6 Xposition Yposition Zposition Zrotation Xrotation Yrotation
                            End Site
                            {
                              OFFSET 0 0 0
                            }
                          }
                        }
                      }
                    }
                  }
                }
                JOINT Bip01_Neck1
                {
                  OFFSET 7.52459 -0.00656509 0
                  CHANNELS 6 Xposition Yposition Zposition Zrotation Xrotation Yrotation
                  JOINT Bip01_Neck2
                  {
                    OFFSET 8.4783 -0.00588226 0
                    CHANNELS 6 Xposition Yposition Zposition Zrotation Xrotation Yrotation
                    JOINT Bip01_Head
                    {
                      OFFSET 8.41606 0 0
                      CHANNELS 6 Xposition Yposition Zposition Zrotation Xrotation Yrotation
                      JOINT EyesBlue
                      {
                        OFFSET 0 0 0
                        CHANNELS 6 Xposition Yposition Zposition Zrotation Xrotation Yrotation
                        JOINT EyesBlue_2
                        {
                          OFFSET 0 -0.500007 0
                          CHANNELS 6 Xposition Yposition Zposition Zrotation Xrotation Yrotation
                          End Site
                          {
                            OFFSET 0 0 0
                          }
                        }
                      }
                      JOINT Bip01_Head2_Eyeleds
                      {
                        OFFSET 6.52751 7.61746 2.2e-005
                        CHANNELS 6 Xposition Yposition Zposition Zrotation Xrotation Yrotation
                        End Site
                        {
                          OFFSET 0 0 0
                        }
                      }
                      JOINT Bip01_Head_Muzzle
                      {
                        OFFSET 2.88628 13.9448 3.88994
                        CHANNELS 6 Xposition Yposition Zposition Zrotation Xrotation Yrotation
                        End Site
                        {
                          OFFSET 0 0 0
                        }
                      }
                      JOINT Bip01_Head1_Jaw
                      {
                        OFFSET 0.271065 1.32405 0
                        CHANNELS 6 Xposition Yposition Zposition Zrotation Xrotation Yrotation
                        JOINT _Bip01_Head11_TungeControler
                        {
                          OFFSET 4.61616 5.82872 0
                          CHANNELS 6 Xposition Yposition Zposition Zrotation Xrotation Yrotation
                          JOINT _Bip01_Ponytail3_tunge
                          {
                            OFFSET 5.17785 2.98805 0
                            CHANNELS 6 Xposition Yposition Zposition Zrotation Xrotation Yrotation
                            JOINT Bip01_Ponytail31
                            {
                              OFFSET 5.57569 0 0
                              CHANNELS 6 Xposition Yposition Zposition Zrotation Xrotation Yrotation
                              JOINT Bip01_Ponytail32
                              {
                                OFFSET 2.93165 0 0
                                CHANNELS 6 Xposition Yposition Zposition Zrotation Xrotation Yrotation
                                JOINT Bip01_Ponytail3Nub
                                {
                                  OFFSET 3.30155 0 0
                                  CHANNELS 6 Xposition Yposition Zposition Zrotation Xrotation Yrotation
                                  End Site
                                  {
                                    OFFSET 0 0 0
                                  }
                                }
                              }
                            }
                          }
                        }
                        JOINT Bip01_Head_JawNub
                        {
                          OFFSET 15.5776 -0.000389099 0
                          CHANNELS 6 Xposition Yposition Zposition Zrotation Xrotation Yrotation
                          End Site
                          {
                            OFFSET 0 0 0
                          }
                        }
                      }
                      JOINT Bip01_Ponytail2
                      {
                        OFFSET 9.40334 1.03973 -6.51764
                        CHANNELS 6 Xposition Yposition Zposition Zrotation Xrotation Yrotation
                        JOINT Bip01_Ponytail21
                        {
                          OFFSET 2.77018 -0.00640106 1.33514e-005
                          CHANNELS 6 Xposition Yposition Zposition Zrotation Xrotation Yrotation
                          End Site
                          {
                            OFFSET 0 0 0
                          }
                        }
                      }
                      JOINT Bip01_Ponytail1
                      {
                        OFFSET 9.40368 1.03969 6.51768
                        CHANNELS 6 Xposition Yposition Zposition Zrotation Xrotation Yrotation
                        JOINT Bip01_Ponytail11
                        {
                          OFFSET 2.77018 -0.00640487 0
                          CHANNELS 6 Xposition Yposition Zposition Zrotation Xrotation Yrotation
                          End Site
                          {
                            OFFSET 0 0 0
                          }
                        }
                      }
                    }
                  }
                }
              }
            }
          }
        }
      }
    }
  }
}
MOTION
Frames:	4
Frame Time:	0.0333333
0 0 -1e-006 -0 -90 -0 -0.262388 -25.4412 50.4629 90.0003 -0.000410277 86.1067 0 0 0 -90 -3.50835e-015 -90 -6.45922 -3.86073 0.440177 133.255 2.8421 -2.67087 10.3791 -0.007041 8.60001e-005 -29.761 0.000834301 0.00143764 10.3834 -0.008159 8.70001e-005 13.6958 0.000563921 0.000346619 10.3851 -0.00801 7.70001e-005 26.328 0.00213398 0.00100676 10.3846 -0.008037 5.20001e-005 22.7699 2.81536e-005 1.42376e-005 9e-006 -1.1e-005 -8.75617 -92.8485 -12.283 174.756 19.7638 2e-006 -1e-006 -60.794 0.0005709 0.00219168 18.6534 -1.42109e-014 -3.55271e-015 -22.7579 2.02335 7.4113 5.09143 13.9567 3.43324e-007 110.679 2.97266 1.88736 4.288 -1e-006 2.4869e-014 53.6716 8.4327 1.28952 3.85799 1.42553e-013 1e-006 -45 -6.87583e-006 6.38131e-006 -1.7e-005 1.1e-005 8.75617 -106.66 -4.31829 -178.966 19.7638 0 1.77636e-015 -63.3886 0.000456685 0.00191553 18.6534 3e-006 -4.79616e-014 -22.0101 0.726357 -5.60609 5.09144 13.9567 -2.92221e-007 111.664 -0.0405644 4.89222 4.288 -1e-006 1.77636e-015 51.474 -6.03003 0.26355 3.85799 7.08766e-013 -3e-006 -45 -7.70549e-009 -2.18492e-006 9.12709 -0.006381 -0.622025 5.52688 0.381814 3.9359 8.04356 -0.006286 0.000102999 2.61128 0.00381101 0.0555308 8.04366 -0.006282 0.000105999 0.150963 0.00189065 0.0543023 8.04294 -0.008209 2.29992e-005 -5.5321 0.000263498 0.0550058 10.67 1.06808 1.90692e-006 -8.32206 0.00133597 0.00181029 -3.62823 -4.59996 -9.04792 -171.728 -85.4171 114.994 19.0492 0 0 87.1037 3.90854 -103.568 10.3706 1e-006 1.11022e-013 -72.4003 4.29439e-005 0.00118559 22.8631 -3.55271e-015 -2.66454e-015 -10.8337 -0.102437 3.39327 6.48257 0.103657 0.504496 -78.3091 -0.300475 -15.4962 3.66843 9.99999e-007 8.70415e-014 34.6071 1.2894e-005 5.48933e-006 -3.62808 -4.59986 9.04777 -170.164 85.3968 -116.563 19.0492 1.77636e-014 3e-006 86.8403 -3.48017 99.5615 10.3706 1e-006 -9.32587e-014 -72.5608 8.93348e-005 0.00301234 22.8631 2.13163e-014 -1e-006 -10.696 -8.48966 -3.03741 6.48256 0.103655 -0.504496 -75.9428 0.956427 15.472 3.66844 -3.25961e-013 -2e-006 40.107 4.33132e-006 -4.67223e-009 7.52553 -0.006641 2.30011e-005 -4.71708 0.000266143 0.000292331 8.47673 -0.006366 0.000104001 15.3897 0.00188864 0.0014584 8.41605 3e-006 4.79616e-013 -114.702 0.209235 0.0640008 -7.00001e-006 1e-006 -3e-006 -23.1098 1.37701e-015 90 6.20216e-009 -0.500007 3.90773e-006 4.23944e-008 90 90 0 0 0 -113.549 1.52588e-005 -180 4.74648 14.207 3.88993 -22.9892 1.37021e-015 90 0 0 0 -84.5669 7.01671e-015 -180 0 0 0 -119.366 3.40589e-006 -2.4802e-005 0 0 0 131.452 0.162279 -0.44087 0 0 0 -0.16845 2.89181e-008 -4.38781e-009 0 0 0 -22.6319 2.01293e-005 -5.85432e-007 0 0 0 -26.1943 -1.9263e-005 -9.50523e-006 15.5776 -0.000396 -6.99996e-006 -2.75869e-033 1.98785e-016 7.95139e-016 9.40335 1.03972 -6.51764 -28.9972 -23.5305 28.8747 2.77017 -0.006401 8.08772e-010 10.5124 -0.20406 -1.09959 9.40368 1.03968 6.51767 -28.9974 23.5304 -28.8745 2.77017 -0.006408 -1.00073e-006 10.5124 0.204067 1.09952 
0 0 -1e-006 -0 -90 -0 -0.262388 -25.4544 50.4629 90.0002 -0.00040682 86.1782 0 0 0 -90 -3.50835e-015 -90 -6.45922 -3.86073 0.440177 133.255 2.84208 -2.6709 10.3791 -0.007041 8.60001e-005 -29.7606 0.000834311 0.00143764 10.3834 -0.008159 8.70001e-005 11.336 0.000549187 0.00036951 10.3851 -0.00801 7.70001e-005 23.9684 0.00209074 0.00109374 10.3846 -0.008037 5.20001e-005 20.4181 2.73135e-005 1.53608e-005 9e-006 -1.1e-005 -8.75617 -92.9411 -12.2834 174.752 19.7638 2e-006 -1e-006 -60.818 0.000569982 0.00219192 18.6534 0 0 -22.7244 2.0277 7.41012 5.09143 13.9567 3.50671e-007 110.65 2.9717 1.88887 4.288 -1e-006 2.84217e-014 53.6716 8.4327 1.28952 3.85799 1.40776e-013 1e-006 -45 -6.89742e-006 6.36013e-006 -1.7e-005 1.1e-005 8.75617 -106.744 -4.31831 -178.975 19.7638 8.88178e-015 1.77636e-015 -63.3892 0.000456664 0.00191553 18.6534 3e-006 -3.90799e-014 -21.9964 0.724348 -5.60462 5.09144 13.9567 -2.92284e-007 111.638 -0.041547 4.89172 4.288 -1e-006 0 51.474 -6.03003 0.26355 3.85799 7.13207e-013 -3e-006 -45 3.32088e-008 -2.14518e-006 9.12709 -0.006381 -0.622025 5.39613 0.372817 3.93676 8.04356 -0.006286 0.000102999 2.52164 0.00372391 0.0555367 8.04366 -0.006282 0.000105999 0.0963213 0.00183879 0.054304 8.04294 -0.008209 2.29991e-005 -5.56681 0.00023053 0.0550059 10.67 1.06808 1.90409e-006 -8.57485 0.00132732 0.00181611 -3.60777 -4.61571 -9.04792 -171.477 -85.4171 114.994 19.0492 -3.55271e-015 -1.42109e-014 87.2338 4.04583 -103.566 10.3706 1e-006 9.68115e-014 -71.7933 5.54783e-005 0.00118495 22.8631 7.10542e-015 0 -11.0303 -0.105451 3.34859 6.48257 0.103657 0.504496 -78.3091 -0.300475 -15.4962 3.66843 9.99999e-007 8.17124e-014 34.6071 1.27503e-005 5.54513e-006 -3.60765 -4.61561 9.04777 -169.881 85.3958 -116.594 19.0492 2.84217e-014 3e-006 86.9279 -3.63156 99.5596 10.3706 1e-006 -9.05942e-014 -71.95 0.000121463 0.00301134 22.8631 2.4869e-014 -1e-006 -10.89 -8.49014 -3.00866 6.48256 0.103655 -0.504496 -75.9428 0.956427 15.472 3.66844 -3.62376e-013 -2e-006 40.107 4.29421e-006 1.58564e-008 7.52553 -0.006641 2.3001e-005 -4.82967 0.000265727 0.000292882 8.47673 -0.006366 0.000104001 15.2774 0.00188886 0.00146203 8.41605 3e-006 3.50386e-013 -111.526 0.212308 0.0522453 -7.00001e-006 1e-006 -3e-006 -23.1098 1.37701e-015 90 6.43643e-009 -0.500007 3.91355e-006 3.71709e-008 90 90 0 0 0 -113.549 1.52588e-005 -180 4.43645 14.1633 3.88993 -22.9892 1.37021e-015 90 0 0 0 -85.4622 -1.52588e-005 -180 0 0 0 -118.434 3.21381e-006 -2.52459e-005 0 0 0 129.95 0.27093 -0.729771 0 0 0 -0.16845 3.12466e-008 -4.30704e-009 0 0 0 -22.6319 2.69849e-005 -5.75754e-007 0 0 0 -26.1943 -2.52566e-005 -1.25212e-005 15.5776 -0.000396 -6.99996e-006 3.18055e-015 5.96354e-016 1.59028e-015 9.40335 1.03972 -6.51764 -32.7352 -44.3655 31.1867 2.77017 -0.006401 1.17436e-009 14.5629 -0.418252 -1.60956 9.40368 1.03968 6.51767 -32.7356 44.3654 -31.1863 2.77017 -0.006408 -1.00098e-006 14.5629 0.418249 1.60947 
0 0 -1e-006 -0 -90 -0 -0.262388 -25.4377 50.4629 90.0001 -0.000403336 86.3215 0 0 0 -90 -3.50835e-015 -90 -6.45922 -3.86073 0.440177 133.256 2.84205 -2.67092 10.3791 -0.007041 8.60001e-005 -29.7603 0.000834319 0.00143764 10.3834 -0.008159 8.70001e-005 8.90115 0.000533008 0.000392472 10.3851 -0.00801 7.70001e-005 21.5337 0.00204242 0.00118155 10.3846 -0.008037 5.20001e-005 17.9905 2.65744e-005 1.6491e-005 9e-006 -1.1e-005 -8.75617 -93.0615 -12.282 174.742 19.7638 2e-006 -1e-006 -60.7988 0.000570707 0.00219173 18.6534 -7.10543e-015 -7.10543e-015 -22.7483 2.0246 7.41096 5.09143 13.9567 3.64499e-007 110.678 2.97263 1.88741 4.288 -1e-006 2.4869e-014 53.6716 8.4327 1.28952 3.85799 1.44329e-013 1e-006 -45 -6.9727e-006 6.29148e-006 -1.7e-005 1.1e-005 8.75617 -106.86 -4.31951 -178.985 19.7638 7.10543e-015 1.77636e-015 -63.3721 0.000457235 0.0019154 18.6534 3e-006 -4.44089e-014 -22.0072 0.726115 -5.60623 5.09144 13.9567 -2.93459e-007 111.659 -0.0420313 4.89265 4.288 -1e-006 -1.77636e-015 51.474 -6.03003 0.26355 3.85799 7.0699e-013 -3e-006 -45 9.4824e-008 -2.08554e-006 9.12709 -0.006381 -0.622025 5.11985 0.353801 3.93852 8.04356 -0.006286 0.000102999 2.36444 0.00357112 0.0555467 8.04366 -0.006282 0.000105999 0.0409421 0.00178622 0.0543058 8.04294 -0.008209 2.29991e-005 -5.56459 0.000233091 0.0550059 10.67 1.06808 1.9019e-006 -8.92397 0.00131547 0.00182409 -3.57943 -4.63738 -9.04792 -171.128 -85.4172 114.994 19.0492 0 0 87.4742 4.42626 -103.611 10.3706 1e-006 1.03917e-013 -70.5553 8.10311e-005 0.00118328 22.8631 1.42108e-014 -8.88179e-016 -11.4733 -0.116014 3.27208 6.48257 0.103657 0.504496 -78.3091 -0.300474 -15.4962 3.66843 9.99999e-007 7.81597e-014 34.6071 1.23329e-005 5.73214e-006 -3.57934 -4.63728 9.04777 -169.49 85.3945 -116.636 19.0492 2.30926e-014 3e-006 87.0912 -4.02413 99.6312 10.3706 1e-006 -9.05942e-014 -70.7013 0.000187081 0.00300814 22.8631 7.10542e-015 -1e-006 -11.3304 -8.48916 -2.95978 6.48256 0.103655 -0.504496 -75.9428 0.956427 15.472 3.66843 -3.25517e-013 -2e-006 40.107 4.54844e-006 -1.87943e-007 7.52553 -0.006641 2.30009e-005 -4.88179 0.000265704 0.000293173 8.47673 -0.006366 0.000104001 15.2256 0.00189127 0.00146364 8.41605 3e-006 1.50546e-013 -107.815 0.214959 0.0383009 -7.00001e-006 1e-006 -3e-006 -23.1098 1.37701e-015 90 6.69184e-009 -0.500007 3.91937e-006 3.30874e-008 90 90 0 0 0 -113.549 1.52588e-005 -180 4.12642 14.1196 3.88993 -22.9892 1.37021e-015 90 0 0 0 -86.3576 -1.52588e-005 -180 0 0 0 -117.502 3.10411e-006 -2.58877e-005 0 0 0 128.462 0.378518 -1.01625 0 0 0 -0.16845 3.38643e-008 -4.17572e-009 0 0 0 -22.6319 3.59114e-005 -5.5958e-007 0 0 0 -26.1943 -3.30295e-005 -1.64444e-005 15.5776 -0.000396 -6.99996e-006 -8.27607e-033 1.98785e-016 2.38542e-015 9.40335 1.03972 -6.51764 -34.3886 -53.2009 31.8026 2.77017 -0.006401 1.1217e-009 16.2732 -0.52945 -1.81311 9.40368 1.03968 6.51767 -34.3892 53.2009 -31.802 2.77017 -0.006408 -1.00089e-006 16.2732 0.529446 1.81303 
0 0 -1e-006 -0 -90 -0 -0.262388 -25.076 50.4629 90 -0.000373678 87.2902 0 0 0 -90 -3.50835e-015 -90 -6.45922 -3.86073 0.440177 133.256 2.84205 -2.67092 10.3791 -0.007041 8.60001e-005 -29.7608 0.000834313 0.00143765 10.3834 -0.008159 8.70001e-005 5.6032 0.000509566 0.000422436 10.3851 -0.00801 7.70001e-005 18.2359 0.0019711 0.00129705 10.3846 -0.008037 5.20001e-005 14.6903 2.55758e-005 1.79739e-005 9e-006 -1.1e-005 -8.75617 -93.5014 -12.259 174.67 19.7638 2e-006 -1e-006 -60.2845 0.000590303 0.0021865 18.6534 0 1.06581e-014 -23.4299 1.93585 7.43452 5.09143 13.9567 4.56439e-007 111.368 2.99513 1.85148 4.288 -1e-006 3.19744e-014 53.6716 8.4327 1.28952 3.85799 1.62092e-013 1e-006 -45 -7.66603e-006 5.67494e-006 -1.7e-005 1.1e-005 8.75617 -107.346 -4.33436 -179.01 19.7638 -7.10543e-015 0 -63.1513 0.000464615 0.00191363 18.6534 3e-006 -4.79616e-014 -22.2993 0.7716 -5.64335 5.09144 13.9567 -3.08027e-007 112.215 -0.0365311 4.91 4.288 -1e-006 0 51.474 -6.03003 0.26355 3.85799 7.2653e-013 -3e-006 -45 3.93468e-007 -1.79827e-006 9.12709 -0.006381 -0.622025 3.16993 0.219375 3.94827 8.04356 -0.006286 0.000102999 1.4302 0.00266198 0.0555977 8.04366 -0.006282 0.000105999 -0.0224246 0.00172612 0.0543078 8.04294 -0.008209 2.29989e-005 -5.13776 0.000643587 0.0550028 10.67 1.06808 1.90893e-006 -10.3809 0.00126692 0.00185681 -3.46034 -4.72709 -9.04792 -169.671 -85.4173 114.995 19.0492 -7.10543e-015 0 88.9975 7.78293 -103.796 10.3706 1e-006 7.54952e-014 -62.0599 0.000254517 0.00115728 22.8631 7.10542e-015 -5.32907e-015 -14.7513 -0.187924 2.82294 6.48257 0.103657 0.504496 -78.3091 -0.300473 -15.4962 3.66843 9.99999e-007 4.9738e-014 34.6071 1.00442e-005 6.72474e-006 -3.46026 -4.72703 9.04777 -167.872 85.3882 -116.798 19.0492 2.13163e-014 3e-006 88.1476 -7.50317 100.003 10.3706 1e-006 -7.19425e-014 -62.1166 0.000634312 0.00294755 22.8631 2.4869e-014 -1e-006 -14.6073 -8.5015 -2.68103 6.48256 0.103655 -0.504496 -75.9428 0.956425 15.472 3.66843 -2.61568e-013 -2e-006 40.107 6.16232e-006 -1.45773e-006 7.52553 -0.006641 2.30007e-005 -4.23864 0.000269959 0.000290394 8.47673 -0.006366 0.000104001 15.8686 0.00191161 0.00144198 8.41605 3e-006 7.54952e-015 -97.9643 0.215989 0.000627847 -7.00001e-006 9.99999e-007 -3e-006 -23.1098 1.37701e-015 90 7.26249e-009 -0.500007 3.92599e-006 2.9416e-008 90 90 0 0 0 -113.549 1.52588e-005 -180 3.81639 14.0759 3.88993 -22.9892 1.37021e-015 90 0 0 0 -87.2529 -1.52588e-005 -180 0 0 0 -116.57 4.05872e-006 -2.88901e-005 0 0 0 127.123 0.474094 -1.27484 0 0 0 -0.16845 3.53609e-008 -3.65171e-009 0 0 0 -22.6319 4.6499e-006 -4.91567e-007 0 0 0 -26.1943 -4.4839e-006 -2.573e-006 15.5776 -0.000396 -6.99993e-006 -1.37935e-033 -9.93923e-017 -7.95139e-016 9.40335 1.03972 -6.51764 -32.7175 -44.2788 31.1854 2.77017 -0.006401 9.51275e-011 14.5459 -0.417204 -1.60749 9.40368 1.03968 6.51767 -32.7178 44.2787 -31.185 2.77017 -0.006408 -1.00006e-006 14.5459 0.417204 1.60742 
